<?xml version="1.0" encoding="UTF-8"?>
<svg xmlns="http://www.w3.org/2000/svg" xmlns:xlink="http://www.w3.org/1999/xlink" width="104px" height="104px" viewBox="0 0 104 104" version="1.1">
<g id="surface1">
<path style=" stroke:none;fill-rule:evenodd;fill:#7C7C8A;fill-opacity:1;" d="M 85.867188 31.199219 L 38.933594 31.199219 C 37.960938 31.199219 36.988281 31.308594 36.039062 31.527344 C 29.039062 33.125 24.660156 40.09375 26.261719 47.09375 L 31.011719 67.894531 C 32.359375 73.808594 37.617188 78 43.683594 78 L 81.117188 78 C 87.183594 78 92.441406 73.808594 93.792969 67.894531 L 98.542969 47.09375 C 98.757812 46.144531 98.867188 45.175781 98.867188 44.199219 C 98.867188 37.019531 93.046875 31.199219 85.867188 31.199219 Z M 38.355469 41.664062 C 38.542969 41.621094 38.738281 41.601562 38.933594 41.601562 L 85.867188 41.601562 C 87.304688 41.601562 88.46875 42.765625 88.46875 44.199219 C 88.46875 44.394531 88.445312 44.589844 88.402344 44.777344 L 83.652344 65.578125 C 83.382812 66.761719 82.332031 67.601562 81.117188 67.601562 L 43.683594 67.601562 C 42.472656 67.601562 41.417969 66.761719 41.148438 65.578125 L 36.398438 44.777344 C 36.078125 43.378906 36.957031 41.984375 38.355469 41.664062 Z M 38.355469 41.664062 "/>
<path style=" stroke:none;fill-rule:nonzero;fill:#7C7C8A;fill-opacity:1;" d="M 18.148438 10.398438 L 10.398438 10.398438 C 7.527344 10.398438 5.199219 8.070312 5.199219 5.199219 C 5.199219 2.328125 7.527344 0 10.398438 0 L 22.308594 0 C 24.738281 0 26.84375 1.683594 27.378906 4.054688 L 41.472656 66.453125 C 42.105469 69.253906 40.347656 72.039062 37.546875 72.671875 C 34.746094 73.304688 31.960938 71.546875 31.328125 68.746094 Z M 18.148438 10.398438 "/>
<path style=" stroke:none;fill-rule:nonzero;fill:#7C7C8A;fill-opacity:1;" d="M 52 89.699219 C 52 94.726562 47.925781 98.800781 42.898438 98.800781 C 37.875 98.800781 33.800781 94.726562 33.800781 89.699219 C 33.800781 84.675781 37.875 80.601562 42.898438 80.601562 C 47.925781 80.601562 52 84.675781 52 89.699219 Z M 52 89.699219 "/>
<path style=" stroke:none;fill-rule:nonzero;fill:#7C7C8A;fill-opacity:1;" d="M 88.398438 89.699219 C 88.398438 94.726562 84.324219 98.800781 79.300781 98.800781 C 74.273438 98.800781 70.199219 94.726562 70.199219 89.699219 C 70.199219 84.675781 74.273438 80.601562 79.300781 80.601562 C 84.324219 80.601562 88.398438 84.675781 88.398438 89.699219 Z M 88.398438 89.699219 "/>
</g>
</svg>
