<svg width="105" height="104" viewBox="0 0 105 104" fill="none" xmlns="http://www.w3.org/2000/svg">
<path fill-rule="evenodd" clip-rule="evenodd" d="M52.4612 8C28.1607 8 8.46118 27.6995 8.46118 52C8.46118 76.3005 28.1607 96 52.4612 96C76.7617 96 96.4612 76.3005 96.4612 52C96.4612 27.6995 76.7617 8 52.4612 8ZM0.461182 52C0.461182 23.2812 23.7424 0 52.4612 0C81.18 0 104.461 23.2812 104.461 52C104.461 80.7188 81.18 104 52.4612 104C23.7424 104 0.461182 80.7188 0.461182 52ZM52.4612 20C54.6703 20 56.4612 21.7909 56.4612 24V48H80.4612C82.6703 48 84.4612 49.7909 84.4612 52C84.4612 54.2091 82.6703 56 80.4612 56H52.4612C50.252 56 48.4612 54.2091 48.4612 52V24C48.4612 21.7909 50.252 20 52.4612 20Z" fill="#7C7C8A"/>
</svg>
