<svg width="25" height="19" viewBox="0 0 25 19" fill="none" xmlns="http://www.w3.org/2000/svg">
<path fill-rule="evenodd" clip-rule="evenodd" d="M0.961182 2.64284C0.961182 1.69607 1.72869 0.928558 2.67547 0.928558H23.2469C24.1937 0.928558 24.9612 1.69607 24.9612 2.64284V16.3571C24.9612 17.3039 24.1937 18.0714 23.2469 18.0714H2.67547C1.72869 18.0714 0.961182 17.3039 0.961182 16.3571V2.64284ZM23.2469 2.64284H2.67547V16.3571H23.2469V2.64284Z" fill="white"/>
<path fill-rule="evenodd" clip-rule="evenodd" d="M16.3898 13.7857C16.3898 13.3123 16.7735 12.9286 17.2469 12.9286H20.6755C21.1489 12.9286 21.5326 13.3123 21.5326 13.7857C21.5326 14.2591 21.1489 14.6428 20.6755 14.6428H17.2469C16.7735 14.6428 16.3898 14.2591 16.3898 13.7857Z" fill="white"/>
<path fill-rule="evenodd" clip-rule="evenodd" d="M11.2469 13.7857C11.2469 13.3123 11.6307 12.9286 12.104 12.9286H13.8183C14.2917 12.9286 14.6755 13.3123 14.6755 13.7857C14.6755 14.2591 14.2917 14.6428 13.8183 14.6428H12.104C11.6307 14.6428 11.2469 14.2591 11.2469 13.7857Z" fill="white"/>
<path fill-rule="evenodd" clip-rule="evenodd" d="M0.961182 6.16851C0.961182 5.69513 1.34494 5.31137 1.81832 5.31137H24.104C24.5774 5.31137 24.9612 5.69513 24.9612 6.16851C24.9612 6.6419 24.5774 7.02566 24.104 7.02566H1.81832C1.34494 7.02566 0.961182 6.6419 0.961182 6.16851Z" fill="white"/>
</svg>
