<svg width="87" height="104" viewBox="0 0 87 104" fill="none" xmlns="http://www.w3.org/2000/svg">
<path fill-rule="evenodd" clip-rule="evenodd" d="M22.4613 0.000624651C24.6704 0.000624651 26.4613 1.79147 26.4613 4.0006V24.0005C26.4613 26.2096 24.6704 28.0005 22.4613 28.0005C20.2522 28.0005 18.4613 26.2096 18.4613 24.0005V4.0006C18.4613 1.79147 20.2522 0.000624651 22.4613 0.000624651Z" fill="#7C7C8A"/>
<path fill-rule="evenodd" clip-rule="evenodd" d="M22.4613 42.0004C24.6704 42.0004 26.4613 43.7912 26.4613 46.0003V100C26.4613 102.209 24.6704 104 22.4613 104C20.2522 104 18.4613 102.209 18.4613 100V46.0003C18.4613 43.7912 20.2522 42.0004 22.4613 42.0004Z" fill="#7C7C8A"/>
<path fill-rule="evenodd" clip-rule="evenodd" d="M9.11897 0.0550481C11.298 0.418226 12.7701 2.47912 12.4069 4.65819L8.46482 28.3109C8.54458 31.9114 10.0096 35.3477 12.5619 37.8999C15.1874 40.5254 18.7483 42.0004 22.4613 42.0004C26.1743 42.0004 29.7352 40.5254 32.3607 37.8999C34.913 35.3477 36.378 31.9114 36.4578 28.3109L32.5157 4.65819C32.1525 2.47912 33.6245 0.418226 35.8036 0.0550481C37.9827 -0.30813 40.0436 1.16394 40.4068 3.34301L44.4067 27.3429C44.443 27.5602 44.4612 27.7801 44.4612 28.0005C44.4612 33.8352 42.1433 39.4309 38.0175 43.5567C33.8918 47.6825 28.296 50.0003 22.4613 50.0003C16.6266 50.0003 11.0308 47.6825 6.90504 43.5567C2.77926 39.4309 0.461426 33.8352 0.461426 28.0005C0.461426 27.7801 0.479629 27.5602 0.51585 27.3429L4.51583 3.34301C4.879 1.16394 6.9399 -0.30813 9.11897 0.0550481Z" fill="#7C7C8A"/>
<path fill-rule="evenodd" clip-rule="evenodd" d="M84.7557 0.72435C85.8245 1.47293 86.4609 2.69576 86.4609 4.0006V100C86.4609 102.209 84.6701 104 82.4609 104C80.2518 104 78.461 102.209 78.461 100V72.0002H54.4611C53.3261 72.0002 52.2445 71.518 51.4858 70.6737C50.7272 69.8295 50.363 68.7027 50.4839 67.5741L54.4611 68.0002C50.4839 67.5741 50.4838 67.5752 50.4839 67.5741L50.4856 67.558L50.4896 67.5217L50.5044 67.3893C50.5174 67.2749 50.5365 67.1088 50.5622 66.8941C50.6136 66.4647 50.6911 65.8407 50.7973 65.0477C51.0095 63.4622 51.3364 61.1983 51.798 58.4602C52.7197 52.9936 54.1858 45.5926 56.3626 37.91C58.5309 30.2573 61.4499 22.1595 65.335 15.3855C69.1691 8.70031 74.2777 2.72011 81.094 0.241449C82.3203 -0.204471 83.687 -0.0242337 84.7557 0.72435ZM59.0225 64.0002H78.461V11.2033C76.2842 13.235 74.2151 15.982 72.2746 19.3656C68.8472 25.3415 66.1413 32.7436 64.0596 40.0908C61.9863 47.4081 60.5774 54.507 59.6867 59.7903C59.4193 61.3758 59.1993 62.7937 59.0225 64.0002Z" fill="#7C7C8A"/>
</svg>
