<svg width="271" height="270" viewBox="0 0 271 270" fill="none" xmlns="http://www.w3.org/2000/svg">
<g clip-path="url(#clip0_1_159)">
<path d="M270.461 0H0.461182V270H270.461V0Z" fill=""/>
<path d="M10.4612 10H20.4612V20H10.4612V10ZM20.4612 10H30.4612V20H20.4612V10ZM30.4612 10H40.4612V20H30.4612V10ZM40.4612 10H50.4612V20H40.4612V10ZM50.4612 10H60.4612V20H50.4612V10ZM60.4612 10H70.4612V20H60.4612V10ZM70.4612 10H80.4612V20H70.4612V10ZM100.461 10H110.461V20H100.461V10ZM140.461 10H150.461V20H140.461V10ZM190.461 10H200.461V20H190.461V10ZM200.461 10H210.461V20H200.461V10ZM210.461 10H220.461V20H210.461V10ZM220.461 10H230.461V20H220.461V10ZM230.461 10H240.461V20H230.461V10ZM240.461 10H250.461V20H240.461V10ZM250.461 10H260.461V20H250.461V10ZM10.4612 20H20.4612V30H10.4612V20ZM70.4612 20H80.4612V30H70.4612V20ZM90.4612 20H100.461V30H90.4612V20ZM100.461 20H110.461V30H100.461V20ZM120.461 20H130.461V30H120.461V20ZM130.461 20H140.461V30H130.461V20ZM140.461 20H150.461V30H140.461V20ZM150.461 20H160.461V30H150.461V20ZM160.461 20H170.461V30H160.461V20ZM190.461 20H200.461V30H190.461V20ZM250.461 20H260.461V30H250.461V20ZM10.4612 30H20.4612V40H10.4612V30ZM30.4612 30H40.4612V40H30.4612V30ZM40.4612 30H50.4612V40H40.4612V30ZM50.4612 30H60.4612V40H50.4612V30ZM70.4612 30H80.4612V40H70.4612V30ZM100.461 30H110.461V40H100.461V30ZM110.461 30H120.461V40H110.461V30ZM120.461 30H130.461V40H120.461V30ZM150.461 30H160.461V40H150.461V30ZM190.461 30H200.461V40H190.461V30ZM210.461 30H220.461V40H210.461V30ZM220.461 30H230.461V40H220.461V30ZM230.461 30H240.461V40H230.461V30ZM250.461 30H260.461V40H250.461V30ZM10.4612 40H20.4612V50H10.4612V40ZM30.4612 40H40.4612V50H30.4612V40ZM40.4612 40H50.4612V50H40.4612V40ZM50.4612 40H60.4612V50H50.4612V40ZM70.4612 40H80.4612V50H70.4612V40ZM90.4612 40H100.461V50H90.4612V40ZM100.461 40H110.461V50H100.461V40ZM120.461 40H130.461V50H120.461V40ZM140.461 40H150.461V50H140.461V40ZM150.461 40H160.461V50H150.461V40ZM160.461 40H170.461V50H160.461V40ZM170.461 40H180.461V50H170.461V40ZM190.461 40H200.461V50H190.461V40ZM210.461 40H220.461V50H210.461V40ZM220.461 40H230.461V50H220.461V40ZM230.461 40H240.461V50H230.461V40ZM250.461 40H260.461V50H250.461V40ZM10.4612 50H20.4612V60H10.4612V50ZM30.4612 50H40.4612V60H30.4612V50ZM40.4612 50H50.4612V60H40.4612V50ZM50.4612 50H60.4612V60H50.4612V50ZM70.4612 50H80.4612V60H70.4612V50ZM110.461 50H120.461V60H110.461V50ZM130.461 50H140.461V60H130.461V50ZM170.461 50H180.461V60H170.461V50ZM190.461 50H200.461V60H190.461V50ZM210.461 50H220.461V60H210.461V50ZM220.461 50H230.461V60H220.461V50ZM230.461 50H240.461V60H230.461V50ZM250.461 50H260.461V60H250.461V50ZM10.4612 60H20.4612V70H10.4612V60ZM70.4612 60H80.4612V70H70.4612V60ZM90.4612 60H100.461V70H90.4612V60ZM110.461 60H120.461V70H110.461V60ZM150.461 60H160.461V70H150.461V60ZM160.461 60H170.461V70H160.461V60ZM190.461 60H200.461V70H190.461V60ZM250.461 60H260.461V70H250.461V60ZM10.4612 70H20.4612V80H10.4612V70ZM20.4612 70H30.4612V80H20.4612V70ZM30.4612 70H40.4612V80H30.4612V70ZM40.4612 70H50.4612V80H40.4612V70ZM50.4612 70H60.4612V80H50.4612V70ZM60.4612 70H70.4612V80H60.4612V70ZM70.4612 70H80.4612V80H70.4612V70ZM90.4612 70H100.461V80H90.4612V70ZM110.461 70H120.461V80H110.461V70ZM130.461 70H140.461V80H130.461V70ZM150.461 70H160.461V80H150.461V70ZM170.461 70H180.461V80H170.461V70ZM190.461 70H200.461V80H190.461V70ZM200.461 70H210.461V80H200.461V70ZM210.461 70H220.461V80H210.461V70ZM220.461 70H230.461V80H220.461V70ZM230.461 70H240.461V80H230.461V70ZM240.461 70H250.461V80H240.461V70ZM250.461 70H260.461V80H250.461V70ZM130.461 80H140.461V90H130.461V80ZM150.461 80H160.461V90H150.461V80ZM10.4612 90H20.4612V100H10.4612V90ZM20.4612 90H30.4612V100H20.4612V90ZM30.4612 90H40.4612V100H30.4612V90ZM40.4612 90H50.4612V100H40.4612V90ZM50.4612 90H60.4612V100H50.4612V90ZM70.4612 90H80.4612V100H70.4612V90ZM80.4612 90H90.4612V100H80.4612V90ZM90.4612 90H100.461V100H90.4612V90ZM100.461 90H110.461V100H100.461V90ZM110.461 90H120.461V100H110.461V90ZM130.461 90H140.461V100H130.461V90ZM140.461 90H150.461V100H140.461V90ZM150.461 90H160.461V100H150.461V90ZM160.461 90H170.461V100H160.461V90ZM180.461 90H190.461V100H180.461V90ZM200.461 90H210.461V100H200.461V90ZM220.461 90H230.461V100H220.461V90ZM240.461 90H250.461V100H240.461V90ZM40.4612 100H50.4612V110H40.4612V100ZM50.4612 100H60.4612V110H50.4612V100ZM60.4612 100H70.4612V110H60.4612V100ZM80.4612 100H90.4612V110H80.4612V100ZM100.461 100H110.461V110H100.461V100ZM140.461 100H150.461V110H140.461V100ZM150.461 100H160.461V110H150.461V100ZM170.461 100H180.461V110H170.461V100ZM180.461 100H190.461V110H180.461V100ZM200.461 100H210.461V110H200.461V100ZM220.461 100H230.461V110H220.461V100ZM50.4612 110H60.4612V120H50.4612V110ZM60.4612 110H70.4612V120H60.4612V110ZM70.4612 110H80.4612V120H70.4612V110ZM90.4612 110H100.461V120H90.4612V110ZM100.461 110H110.461V120H100.461V110ZM120.461 110H130.461V120H120.461V110ZM130.461 110H140.461V120H130.461V110ZM160.461 110H170.461V120H160.461V110ZM180.461 110H190.461V120H180.461V110ZM190.461 110H200.461V120H190.461V110ZM200.461 110H210.461V120H200.461V110ZM230.461 110H240.461V120H230.461V110ZM240.461 110H250.461V120H240.461V110ZM250.461 110H260.461V120H250.461V110ZM10.4612 120H20.4612V130H10.4612V120ZM20.4612 120H30.4612V130H20.4612V120ZM30.4612 120H40.4612V130H30.4612V120ZM60.4612 120H70.4612V130H60.4612V120ZM100.461 120H110.461V130H100.461V120ZM110.461 120H120.461V130H110.461V120ZM120.461 120H130.461V130H120.461V120ZM170.461 120H180.461V130H170.461V120ZM190.461 120H200.461V130H190.461V120ZM240.461 120H250.461V130H240.461V120ZM20.4612 130H30.4612V140H20.4612V130ZM50.4612 130H60.4612V140H50.4612V130ZM70.4612 130H80.4612V140H70.4612V130ZM80.4612 130H90.4612V140H80.4612V130ZM100.461 130H110.461V140H100.461V130ZM120.461 130H130.461V140H120.461V130ZM130.461 130H140.461V140H130.461V130ZM140.461 130H150.461V140H140.461V130ZM150.461 130H160.461V140H150.461V130ZM190.461 130H200.461V140H190.461V130ZM210.461 130H220.461V140H210.461V130ZM220.461 130H230.461V140H220.461V130ZM230.461 130H240.461V140H230.461V130ZM240.461 130H250.461V140H240.461V130ZM10.4612 140H20.4612V150H10.4612V140ZM20.4612 140H30.4612V150H20.4612V140ZM50.4612 140H60.4612V150H50.4612V140ZM80.4612 140H90.4612V150H80.4612V140ZM100.461 140H110.461V150H100.461V140ZM110.461 140H120.461V150H110.461V140ZM130.461 140H140.461V150H130.461V140ZM150.461 140H160.461V150H150.461V140ZM200.461 140H210.461V150H200.461V140ZM220.461 140H230.461V150H220.461V140ZM230.461 140H240.461V150H230.461V140ZM10.4612 150H20.4612V160H10.4612V150ZM30.4612 150H40.4612V160H30.4612V150ZM60.4612 150H70.4612V160H60.4612V150ZM70.4612 150H80.4612V160H70.4612V150ZM80.4612 150H90.4612V160H80.4612V150ZM90.4612 150H100.461V160H90.4612V150ZM100.461 150H110.461V160H100.461V150ZM110.461 150H120.461V160H110.461V150ZM130.461 150H140.461V160H130.461V150ZM160.461 150H170.461V160H160.461V150ZM170.461 150H180.461V160H170.461V150ZM180.461 150H190.461V160H180.461V150ZM200.461 150H210.461V160H200.461V150ZM230.461 150H240.461V160H230.461V150ZM240.461 150H250.461V160H240.461V150ZM250.461 150H260.461V160H250.461V150ZM10.4612 160H20.4612V170H10.4612V160ZM50.4612 160H60.4612V170H50.4612V160ZM90.4612 160H100.461V170H90.4612V160ZM100.461 160H110.461V170H100.461V160ZM110.461 160H120.461V170H110.461V160ZM120.461 160H130.461V170H120.461V160ZM130.461 160H140.461V170H130.461V160ZM160.461 160H170.461V170H160.461V160ZM170.461 160H180.461V170H170.461V160ZM200.461 160H210.461V170H200.461V160ZM10.4612 170H20.4612V180H10.4612V170ZM50.4612 170H60.4612V180H50.4612V170ZM60.4612 170H70.4612V180H60.4612V170ZM70.4612 170H80.4612V180H70.4612V170ZM80.4612 170H90.4612V180H80.4612V170ZM110.461 170H120.461V180H110.461V170ZM140.461 170H150.461V180H140.461V170ZM150.461 170H160.461V180H150.461V170ZM170.461 170H180.461V180H170.461V170ZM180.461 170H190.461V180H180.461V170ZM190.461 170H200.461V180H190.461V170ZM200.461 170H210.461V180H200.461V170ZM210.461 170H220.461V180H210.461V170ZM220.461 170H230.461V180H220.461V170ZM230.461 170H240.461V180H230.461V170ZM250.461 170H260.461V180H250.461V170ZM90.4612 180H100.461V190H90.4612V180ZM100.461 180H110.461V190H100.461V180ZM110.461 180H120.461V190H110.461V180ZM120.461 180H130.461V190H120.461V180ZM140.461 180H150.461V190H140.461V180ZM160.461 180H170.461V190H160.461V180ZM170.461 180H180.461V190H170.461V180ZM210.461 180H220.461V190H210.461V180ZM240.461 180H250.461V190H240.461V180ZM10.4612 190H20.4612V200H10.4612V190ZM20.4612 190H30.4612V200H20.4612V190ZM30.4612 190H40.4612V200H30.4612V190ZM40.4612 190H50.4612V200H40.4612V190ZM50.4612 190H60.4612V200H50.4612V190ZM60.4612 190H70.4612V200H60.4612V190ZM70.4612 190H80.4612V200H70.4612V190ZM90.4612 190H100.461V200H90.4612V190ZM100.461 190H110.461V200H100.461V190ZM150.461 190H160.461V200H150.461V190ZM170.461 190H180.461V200H170.461V190ZM190.461 190H200.461V200H190.461V190ZM210.461 190H220.461V200H210.461V190ZM240.461 190H250.461V200H240.461V190ZM250.461 190H260.461V200H250.461V190ZM10.4612 200H20.4612V210H10.4612V200ZM70.4612 200H80.4612V210H70.4612V200ZM100.461 200H110.461V210H100.461V200ZM170.461 200H180.461V210H170.461V200ZM210.461 200H220.461V210H210.461V200ZM10.4612 210H20.4612V220H10.4612V210ZM30.4612 210H40.4612V220H30.4612V210ZM40.4612 210H50.4612V220H40.4612V210ZM50.4612 210H60.4612V220H50.4612V210ZM70.4612 210H80.4612V220H70.4612V210ZM90.4612 210H100.461V220H90.4612V210ZM110.461 210H120.461V220H110.461V210ZM130.461 210H140.461V220H130.461V210ZM140.461 210H150.461V220H140.461V210ZM150.461 210H160.461V220H150.461V210ZM160.461 210H170.461V220H160.461V210ZM170.461 210H180.461V220H170.461V210ZM180.461 210H190.461V220H180.461V210ZM190.461 210H200.461V220H190.461V210ZM200.461 210H210.461V220H200.461V210ZM210.461 210H220.461V220H210.461V210ZM230.461 210H240.461V220H230.461V210ZM10.4612 220H20.4612V230H10.4612V220ZM30.4612 220H40.4612V230H30.4612V220ZM40.4612 220H50.4612V230H40.4612V220ZM50.4612 220H60.4612V230H50.4612V220ZM70.4612 220H80.4612V230H70.4612V220ZM90.4612 220H100.461V230H90.4612V220ZM120.461 220H130.461V230H120.461V220ZM140.461 220H150.461V230H140.461V220ZM170.461 220H180.461V230H170.461V220ZM180.461 220H190.461V230H180.461V220ZM190.461 220H200.461V230H190.461V220ZM210.461 220H220.461V230H210.461V220ZM240.461 220H250.461V230H240.461V220ZM250.461 220H260.461V230H250.461V220ZM10.4612 230H20.4612V240H10.4612V230ZM30.4612 230H40.4612V240H30.4612V230ZM40.4612 230H50.4612V240H40.4612V230ZM50.4612 230H60.4612V240H50.4612V230ZM70.4612 230H80.4612V240H70.4612V230ZM90.4612 230H100.461V240H90.4612V230ZM100.461 230H110.461V240H100.461V230ZM130.461 230H140.461V240H130.461V230ZM140.461 230H150.461V240H140.461V230ZM150.461 230H160.461V240H150.461V230ZM170.461 230H180.461V240H170.461V230ZM200.461 230H210.461V240H200.461V230ZM220.461 230H230.461V240H220.461V230ZM250.461 230H260.461V240H250.461V230ZM10.4612 240H20.4612V250H10.4612V240ZM70.4612 240H80.4612V250H70.4612V240ZM90.4612 240H100.461V250H90.4612V240ZM100.461 240H110.461V250H100.461V240ZM120.461 240H130.461V250H120.461V240ZM130.461 240H140.461V250H130.461V240ZM150.461 240H160.461V250H150.461V240ZM160.461 240H170.461V250H160.461V240ZM170.461 240H180.461V250H170.461V240ZM190.461 240H200.461V250H190.461V240ZM200.461 240H210.461V250H200.461V240ZM210.461 240H220.461V250H210.461V240ZM250.461 240H260.461V250H250.461V240ZM10.4612 250H20.4612V260H10.4612V250ZM20.4612 250H30.4612V260H20.4612V250ZM30.4612 250H40.4612V260H30.4612V250ZM40.4612 250H50.4612V260H40.4612V250ZM50.4612 250H60.4612V260H50.4612V250ZM60.4612 250H70.4612V260H60.4612V250ZM70.4612 250H80.4612V260H70.4612V250ZM90.4612 250H100.461V260H90.4612V250ZM110.461 250H120.461V260H110.461V250ZM140.461 250H150.461V260H140.461V250ZM150.461 250H160.461V260H150.461V250ZM180.461 250H190.461V260H180.461V250ZM230.461 250H240.461V260H230.461V250ZM240.461 250H250.461V260H240.461V250ZM250.461 250H260.461V260H250.461V250Z" fill="#76797B"/>
</g>
<defs>
<clipPath id="clip0_1_159">
<rect width="270" height="270" fill="white" transform="translate(0.461182)"/>
</clipPath>
</defs>
</svg>
