<svg width="33" height="32" viewBox="0 0 33 32" fill="none" xmlns="http://www.w3.org/2000/svg">
<path fill-rule="evenodd" clip-rule="evenodd" d="M8.96118 13C8.96118 12.4477 9.4089 12 9.96118 12H22.9612C23.5135 12 23.9612 12.4477 23.9612 13C23.9612 13.5523 23.5135 14 22.9612 14H9.96118C9.4089 14 8.96118 13.5523 8.96118 13Z" fill="white"/>
<path fill-rule="evenodd" clip-rule="evenodd" d="M8.96118 17C8.96118 16.4477 9.4089 16 9.96118 16H22.9612C23.5135 16 23.9612 16.4477 23.9612 17C23.9612 17.5523 23.5135 18 22.9612 18H9.96118C9.4089 18 8.96118 17.5523 8.96118 17Z" fill="white"/>
<path fill-rule="evenodd" clip-rule="evenodd" d="M4.04697 5.58579C4.42204 5.21071 4.93075 5 5.46118 5H27.4612C27.9916 5 28.5003 5.21071 28.8754 5.58579C29.2505 5.96086 29.4612 6.46957 29.4612 7V26C29.4612 26.3466 29.2817 26.6684 28.9869 26.8507C28.6921 27.0329 28.324 27.0494 28.014 26.8944L24.4612 25.118L20.9084 26.8944C20.6269 27.0352 20.2955 27.0352 20.014 26.8944L16.4612 25.118L12.9084 26.8944C12.6269 27.0352 12.2955 27.0352 12.014 26.8944L8.46118 25.118L4.9084 26.8944C4.59841 27.0494 4.23027 27.0329 3.93545 26.8507C3.64063 26.6684 3.46118 26.3466 3.46118 26V7C3.46118 6.46957 3.6719 5.96086 4.04697 5.58579ZM27.4612 7L5.46118 7L5.46118 24.382L8.01397 23.1056C8.2955 22.9648 8.62687 22.9648 8.9084 23.1056L12.4612 24.882L16.014 23.1056C16.2955 22.9648 16.6269 22.9648 16.9084 23.1056L20.4612 24.882L24.014 23.1056C24.2955 22.9648 24.6269 22.9648 24.9084 23.1056L27.4612 24.382V7Z" fill="white"/>
</svg>
