<svg width="25" height="24" viewBox="0 0 25 24" fill="none" xmlns="http://www.w3.org/2000/svg">
<path fill-rule="evenodd" clip-rule="evenodd" d="M6.31703 3.61739C7.65131 2.72585 9.21999 2.25 10.8247 2.25H10.8248C12.9766 2.25014 15.0402 3.105 16.5617 4.62655C18.0833 6.14811 18.9382 8.21174 18.9383 10.3635V10.3636C18.9383 11.9683 18.4624 13.537 17.5709 14.8713C17.4144 15.1054 17.2464 15.3305 17.0677 15.5459L21.9914 20.4697C22.2843 20.7626 22.2843 21.2374 21.9914 21.5303C21.6985 21.8232 21.2237 21.8232 20.9308 21.5303L16.007 16.6065C15.3846 17.1232 14.6851 17.5467 13.9296 17.8596C12.4471 18.4737 10.8157 18.6344 9.24182 18.3213C7.66794 18.0082 6.22223 17.2355 5.08753 16.1008C3.95282 14.9661 3.18007 13.5204 2.86701 11.9465C2.55394 10.3726 2.71462 8.74122 3.32872 7.25866C3.94282 5.77609 4.98276 4.50892 6.31703 3.61739ZM10.8247 3.75C9.51663 3.75001 8.23797 4.13789 7.15039 4.86459C6.06279 5.5913 5.21511 6.6242 4.71454 7.83268C4.21397 9.04116 4.083 10.3709 4.33819 11.6538C4.59337 12.9368 5.22326 14.1152 6.14819 15.0401C7.07311 15.965 8.25154 16.5949 9.53446 16.8501C10.8174 17.1053 12.1471 16.9743 13.3556 16.4738C14.5641 15.9732 15.597 15.1255 16.3237 14.0379C17.0504 12.9503 17.4383 11.6717 17.4383 10.3636M10.8247 3.75C12.5787 3.75012 14.2608 4.44695 15.5011 5.68721C16.7413 6.92748 17.4382 8.6096 17.4383 10.3636" fill="#C4C4CC"/>
</svg>
